PathFileType	4	(X/Y/Z)	/tmp/tmpjnq7zxqp/Me/MarkerData/fast walking03_segment_0.trc
DataRate	CameraRate	NumFrames	NumMarkers	Units	OrigDataRate	OrigDataStartFrame	OrigNumFrames
100.094	100.094	11	38	m	100.094	266	1067
Frame#	Time	C7			CLAV			LANK			LASI			LBHD			LELB			LFHD			LFIN			LFRM			LHEE			LKNE			LPSI			LSHO			LTHI			LTIB			LTOE			LUPA			LWRA			LWRB			RANK			RBAK			RBHD			RELB			RFHD			RFIN			RFRM			RHEE			RKNE			RPSI			RSHO			RTHI			RTIB			RTOE			RUPA			RWRA			RWRB			STRN			T10		
		X1	Y1	Z1	X2	Y2	Z2	X3	Y3	Z3	X4	Y4	Z4	X5	Y5	Z5	X6	Y6	Z6	X7	Y7	Z7	X8	Y8	Z8	X9	Y9	Z9	X10	Y10	Z10	X11	Y11	Z11	X12	Y12	Z12	X13	Y13	Z13	X14	Y14	Z14	X15	Y15	Z15	X16	Y16	Z16	X17	Y17	Z17	X18	Y18	Z18	X19	Y19	Z19	X20	Y20	Z20	X21	Y21	Z21	X22	Y22	Z22	X23	Y23	Z23	X24	Y24	Z24	X25	Y25	Z25	X26	Y26	Z26	X27	Y27	Z27	X28	Y28	Z28	X29	Y29	Z29	X30	Y30	Z30	X31	Y31	Z31	X32	Y32	Z32	X33	Y33	Z33	X34	Y34	Z34	X35	Y35	Z35	X36	Y36	Z36	X37	Y37	Z37	X38	Y38	Z38

267	2.65751	-0.20677	1.46493	-0.00637801	-0.366619	1.38849	-0.000154105	-0.242614	0.0909041	0.0842362	-0.311583	0.994974	0.157271	-0.347946	1.60632	0.086037	-0.330742	1.09395	0.265083	-0.476176	1.582	0.0679928	-0.46719	0.790832	0.253281	-0.355543	0.937291	0.254299	-0.171683	0.0617743	0.0349767	-0.333188	0.473415	0.122704	-0.173477	1.00585	0.0281844	-0.263778	1.44184	0.16901	-0.333735	0.65975	0.160907	-0.268124	0.233669	0.121501	-0.411311	0.065448	0.021782	-0.309229	1.27816	0.256395	-0.437921	0.874902	0.197377	-0.394072	0.855524	0.252175	-0.161598	0.232358	-0.123074	-0.154343	1.33164	-0.125424	-0.342604	1.61675	-0.0635174	-0.263121	1.10706	-0.268892	-0.463089	1.58694	-0.060801	-0.304711	0.760478	-0.296047	-0.260123	1.01889	-0.27887	-0.0975248	0.251028	-0.0465484	-0.458898	0.518129	-0.178978	-0.171725	0.999748	-0.0351245	-0.280818	1.44867	-0.175581	-0.375989	0.840271	-0.183971	-0.349705	0.436147	-0.18731	-0.257802	0.088825	-0.0976509	-0.284786	1.20342	-0.257138	-0.312869	0.857506	-0.235284	-0.266719	0.851293	-0.290532	-0.408857	1.23509	0.00271868	-0.158106	1.23513	-0.00141408
268	2.6675	-0.205829	1.46518	-0.00531714	-0.365734	1.38873	-2.559e-05	-0.229612	0.0910006	0.0843684	-0.309207	0.994497	0.158038	-0.347442	1.60673	0.0858748	-0.338269	1.09637	0.265972	-0.475583	1.58262	0.0671112	-0.487169	0.799534	0.248802	-0.369195	0.940658	0.253605	-0.158785	0.061925	0.0349293	-0.32142	0.472855	0.123114	-0.171626	1.00616	0.0276034	-0.264301	1.44289	0.169551	-0.325283	0.659276	0.16099	-0.255488	0.233889	0.121824	-0.398418	0.0654172	0.0218232	-0.312726	1.28018	0.25684	-0.452692	0.882275	0.194354	-0.411229	0.860627	0.24994	-0.180908	0.223266	-0.12281	-0.152321	1.3325	-0.123563	-0.341173	1.61677	-0.0636766	-0.255026	1.10809	-0.269987	-0.461721	1.58724	-0.0615998	-0.29066	0.760658	-0.299432	-0.250556	1.02005	-0.2805	-0.11536	0.236811	-0.0461306	-0.465665	0.522241	-0.177486	-0.170709	1.00024	-0.0357765	-0.279085	1.44866	-0.174864	-0.376562	0.842851	-0.183136	-0.359479	0.435536	-0.18654	-0.285909	0.0859391	-0.0977324	-0.278163	1.20399	-0.257842	-0.30195	0.857716	-0.238827	-0.254349	0.852491	-0.293697	-0.407825	1.23535	0.00328331	-0.156789	1.23581	7.73169e-05
269	2.67749	-0.204919	1.46507	-0.00428515	-0.364913	1.38859	4.49275e-05	-0.216618	0.0910983	0.0844824	-0.306752	0.993765	0.158806	-0.346918	1.6068	0.0856774	-0.345552	1.09842	0.266834	-0.474983	1.58287	0.0662182	-0.506663	0.808468	0.244137	-0.382599	0.944004	0.252737	-0.145865	0.0620848	0.0348777	-0.309708	0.472158	0.123427	-0.169557	1.00614	0.0269896	-0.264845	1.44351	0.17006	-0.316877	0.658675	0.161083	-0.242725	0.234123	0.122148	-0.385513	0.0653485	0.0218688	-0.316112	1.28179	0.257297	-0.46717	0.889782	0.191346	-0.42803	0.865872	0.247524	-0.201179	0.213419	-0.122552	-0.150326	1.33278	-0.121689	-0.33979	1.6165	-0.06387	-0.24709	1.1088	-0.271155	-0.460377	1.58719	-0.062402	-0.27708	0.760743	-0.302768	-0.24129	1.0209	-0.282136	-0.134164	0.222447	-0.0462946	-0.471774	0.52597	-0.175972	-0.169108	1.00034	-0.0363725	-0.277297	1.44821	-0.174235	-0.376883	0.844823	-0.182342	-0.369174	0.434388	-0.185728	-0.314331	0.0831253	-0.098144	-0.271699	1.20423	-0.258542	-0.291344	0.857689	-0.242413	-0.242432	0.85337	-0.296646	-0.406833	1.23508	0.00405115	-0.155353	1.23603	0.00149402
270	2.68748	-0.204057	1.46464	-0.00333413	-0.364113	1.38805	2.67164e-05	-0.203701	0.0911322	0.0845443	-0.304273	0.992833	0.159491	-0.346379	1.60653	0.0854185	-0.35263	1.10011	0.267707	-0.474384	1.58279	0.0653297	-0.525557	0.817515	0.23933	-0.395775	0.947244	0.251793	-0.132824	0.0623344	0.034856	-0.298176	0.471408	0.123616	-0.167352	1.00586	0.0264569	-0.265392	1.44366	0.170533	-0.308522	0.657978	0.161224	-0.229906	0.234372	0.122406	-0.37262	0.0652724	0.0219168	-0.319353	1.28298	0.257759	-0.481281	0.897361	0.188323	-0.444389	0.871313	0.24516	-0.222105	0.203183	-0.122546	-0.148415	1.33249	-0.119846	-0.338422	1.61592	-0.0640994	-0.239376	1.10921	-0.272335	-0.459075	1.58678	-0.0632148	-0.264073	0.760723	-0.306123	-0.232337	1.02148	-0.283737	-0.154021	0.207867	-0.0467585	-0.477231	0.529299	-0.174425	-0.16743	1	-0.0369525	-0.275592	1.44739	-0.17378	-0.376995	0.846237	-0.181685	-0.378588	0.432882	-0.184873	-0.343172	0.080487	-0.0986906	-0.26557	1.20412	-0.25931	-0.281095	0.857483	-0.24607	-0.230892	0.853962	-0.299327	-0.405849	1.2343	0.0049406	-0.153817	1.2358	0.0028854
271	2.69747	-0.203246	1.46389	-0.00246636	-0.363309	1.38719	-0.000102646	-0.190882	0.0912288	0.0844316	-0.301947	0.991681	0.160091	-0.345859	1.60592	0.085142	-0.359475	1.10147	0.268628	-0.473801	1.58238	0.0644268	-0.543771	0.826672	0.234333	-0.408625	0.950427	0.250704	-0.119629	0.0627128	0.0347926	-0.287133	0.470724	0.123792	-0.165455	1.00524	0.0260321	-0.265862	1.44337	0.17098	-0.300299	0.657215	0.161332	-0.217302	0.234585	0.122544	-0.359794	0.0652531	0.0219838	-0.322436	1.28374	0.258207	-0.494931	0.905065	0.185316	-0.460306	0.876804	0.242701	-0.243651	0.192733	-0.123195	-0.146587	1.33161	-0.118082	-0.337097	1.615	-0.0643496	-0.231907	1.10931	-0.27349	-0.457816	1.58607	-0.064051	-0.251474	0.760586	-0.309473	-0.223594	1.02175	-0.285394	-0.174828	0.192821	-0.0471034	-0.482078	0.532105	-0.172857	-0.165684	0.999253	-0.0373929	-0.273764	1.44617	-0.173428	-0.376935	0.847147	-0.181226	-0.38786	0.43088	-0.184078	-0.372327	0.0781382	-0.0993399	-0.259595	1.20369	-0.260056	-0.271148	0.857074	-0.249701	-0.219704	0.854313	-0.301881	-0.404848	1.23306	0.00584873	-0.152253	1.23513	0.00426734
272	2.70746	-0.202484	1.46281	-0.00166712	-0.362491	1.386	-0.000340502	-0.178123	0.0914137	0.084202	-0.299813	0.990341	0.160548	-0.345357	1.605	0.0848232	-0.366076	1.10254	0.269626	-0.473242	1.58167	0.0635025	-0.56132	0.836014	0.229386	-0.421067	0.953627	0.249561	-0.106569	0.0630617	0.0346499	-0.276571	0.470057	0.12391	-0.163756	1.0043	0.0257291	-0.266266	1.44268	0.171406	-0.29233	0.656415	0.161328	-0.204986	0.234755	0.122607	-0.347021	0.0652548	0.0220859	-0.325352	1.28409	0.258631	-0.508093	0.912872	0.18235	-0.475729	0.882381	0.24003	-0.266021	0.18209	-0.124333	-0.144813	1.33018	-0.116397	-0.335842	1.61378	-0.0646669	-0.224735	1.10913	-0.274613	-0.456605	1.58508	-0.0648977	-0.23946	0.760345	-0.31296	-0.214996	1.02172	-0.287177	-0.197079	0.177471	-0.0477953	-0.48635	0.534318	-0.171346	-0.163769	0.998166	-0.037619	-0.271747	1.44458	-0.173128	-0.376621	0.847513	-0.180807	-0.397056	0.428328	-0.183367	-0.40168	0.0762288	-0.0999589	-0.253842	1.203	-0.26077	-0.26112	0.856331	-0.253061	-0.208827	0.854489	-0.30444	-0.403799	1.23143	0.00674674	-0.150688	1.23404	0.0056885
273	2.71745	-0.201709	1.46144	-0.000942383	-0.361704	1.38455	-0.000643839	-0.165365	0.0915802	0.0839902	-0.297932	0.988802	0.160945	-0.344867	1.6038	0.0844542	-0.372499	1.1033	0.270614	-0.472702	1.58066	0.0625576	-0.57802	0.845483	0.224546	-0.433067	0.956811	0.24841	-0.0938402	0.0632063	0.0345512	-0.266521	0.469315	0.123963	-0.162045	1.00305	0.0255663	-0.266668	1.44163	0.171766	-0.284944	0.655582	0.161433	-0.192968	0.2349	0.122555	-0.334207	0.0650912	0.0221048	-0.328114	1.28407	0.259036	-0.520732	0.9206	0.17945	-0.490591	0.888004	0.237323	-0.289142	0.171527	-0.12475	-0.143135	1.32825	-0.114838	-0.334638	1.61229	-0.0650315	-0.217867	1.10873	-0.275694	-0.455454	1.58384	-0.0657623	-0.227912	0.760096	-0.316785	-0.206829	1.02155	-0.288871	-0.220239	0.162203	-0.0485606	-0.490053	0.535959	-0.169836	-0.161809	0.996785	-0.037649	-0.269742	1.44274	-0.172945	-0.376059	0.847318	-0.180375	-0.406143	0.425256	-0.182766	-0.431208	0.0748806	-0.100557	-0.248439	1.20207	-0.261481	-0.251537	0.855434	-0.256427	-0.198306	0.854485	-0.306918	-0.402673	1.22953	0.00760571	-0.14915	1.23256	0.00713157
274	2.72744	-0.200964	1.4598	-0.000313962	-0.360928	1.38281	-0.0010355	-0.152662	0.0917218	0.0837578	-0.296234	0.987129	0.161269	-0.34439	1.60232	0.0840117	-0.378762	1.10383	0.271527	-0.472173	1.57938	0.0616162	-0.59385	0.855002	0.219805	-0.444671	0.959938	0.247228	-0.0810296	0.0634639	0.0345208	-0.256999	0.468484	0.124028	-0.160368	1.00144	0.025583	-0.267102	1.44026	0.172059	-0.278249	0.654608	0.161717	-0.181269	0.234994	0.122498	-0.321388	0.0649026	0.0220711	-0.330689	1.28367	0.259376	-0.532785	0.928198	0.176618	-0.504853	0.893592	0.234568	-0.312698	0.161338	-0.125067	-0.141551	1.32589	-0.11343	-0.333526	1.61057	-0.0653776	-0.211326	1.10809	-0.276725	-0.454368	1.58234	-0.0666343	-0.216501	0.759926	-0.321111	-0.199118	1.02115	-0.290269	-0.244446	0.146963	-0.0495309	-0.492935	0.536948	-0.168122	-0.160502	0.995059	-0.0376112	-0.267796	1.44069	-0.172871	-0.375297	0.846569	-0.179986	-0.415075	0.42174	-0.182311	-0.460827	0.0741994	-0.10118	-0.243367	1.20089	-0.262133	-0.242446	0.854382	-0.259806	-0.188171	0.854181	-0.309251	-0.401465	1.2274	0.00833323	-0.147634	1.23073	0.00864657
275	2.73743	-0.200213	1.45791	0.00017134	-0.360208	1.38081	-0.00151896	-0.139877	0.0919356	0.0835332	-0.294668	0.985376	0.16157	-0.343934	1.60061	0.0835433	-0.384889	1.1042	0.27234	-0.471676	1.57787	0.0606634	-0.60882	0.864505	0.215186	-0.455896	0.963016	0.246084	-0.0679567	0.0639749	0.0345498	-0.247992	0.467622	0.12413	-0.158758	0.99955	0.0257687	-0.267527	1.43861	0.172274	-0.272012	0.65351	0.161976	-0.169915	0.235116	0.122542	-0.308534	0.0646928	0.021926	-0.333005	1.28297	0.259583	-0.544221	0.935694	0.173858	-0.51852	0.899202	0.231753	-0.336568	0.151432	-0.125722	-0.140059	1.32316	-0.112176	-0.33246	1.60861	-0.0657137	-0.205165	1.10723	-0.27767	-0.453332	1.58062	-0.067527	-0.20569	0.759586	-0.325117	-0.191769	1.02052	-0.291536	-0.26948	0.132093	-0.0507822	-0.494913	0.537226	-0.166238	-0.159052	0.993141	-0.0373932	-0.265918	1.43849	-0.172891	-0.374342	0.845251	-0.179696	-0.423688	0.417861	-0.181854	-0.490398	0.0743124	-0.101832	-0.238599	1.19949	-0.262736	-0.233519	0.853143	-0.262999	-0.178516	0.853809	-0.311546	-0.40022	1.2251	0.00879167	-0.146155	1.22858	0.0102101
276	2.74742	-0.199472	1.4558	0.000513092	-0.359539	1.37862	-0.00204529	-0.127115	0.0921909	0.0833779	-0.293446	0.983507	0.161701	-0.343528	1.59866	0.0829918	-0.390849	1.10445	0.273022	-0.471219	1.57616	0.0596802	-0.622893	0.87396	0.210726	-0.4667	0.966056	0.245007	-0.0550436	0.0643166	0.0344787	-0.239405	0.466777	0.124223	-0.157292	0.997462	0.0260353	-0.267923	1.43673	0.172374	-0.266217	0.652303	0.162115	-0.158711	0.235224	0.122604	-0.295634	0.0643914	0.0216613	-0.33511	1.28199	0.259657	-0.555008	0.94304	0.1712	-0.531517	0.904847	0.229142	-0.360923	0.141836	-0.126721	-0.138654	1.32017	-0.111144	-0.331443	1.60646	-0.0662567	-0.199447	1.10618	-0.278529	-0.452405	1.57872	-0.0684426	-0.195459	0.759056	-0.328793	-0.184845	1.01981	-0.292909	-0.29525	0.1178	-0.0522646	-0.495911	0.536789	-0.164195	-0.157557	0.991011	-0.037108	-0.263995	1.43603	-0.172924	-0.373228	0.843359	-0.179555	-0.431611	0.413839	-0.181175	-0.519861	0.0754357	-0.102539	-0.23419	1.19787	-0.263295	-0.224595	0.851736	-0.265832	-0.16927	0.853335	-0.31376	-0.399097	1.22264	0.00882085	-0.144728	1.22614	0.0117545
277	2.75741	-0.198774	1.45352	0.000771208	-0.358925	1.37624	-0.00260132	-0.114408	0.0925034	0.0832281	-0.292583	0.981542	0.161751	-0.343159	1.59654	0.0823661	-0.39664	1.10459	0.273537	-0.470808	1.57431	0.0586579	-0.636069	0.883283	0.20646	-0.476916	0.969092	0.243794	-0.0423519	0.0644479	0.034337	-0.231063	0.465985	0.124305	-0.156028	0.995267	0.026318	-0.268285	1.43467	0.172373	-0.260961	0.650964	0.162225	-0.147596	0.235355	0.122684	-0.28282	0.0641345	0.0216673	-0.337202	1.28083	0.259748	-0.565048	0.950059	0.168719	-0.54366	0.91047	0.226486	-0.386076	0.133472	-0.128111	-0.137433	1.317	-0.110419	-0.330512	1.60418	-0.0668493	-0.194183	1.10494	-0.279324	-0.451557	1.57668	-0.0693975	-0.185757	0.758423	-0.332469	-0.178403	1.01891	-0.294135	-0.321765	0.104278	-0.0539377	-0.495988	0.535619	-0.162063	-0.156127	0.988677	-0.036799	-0.262048	1.43341	-0.173003	-0.371946	0.840905	-0.179515	-0.438699	0.409739	-0.180255	-0.549048	0.0776322	-0.103338	-0.230099	1.19607	-0.263841	-0.216387	0.850134	-0.268698	-0.160438	0.852713	-0.315922	-0.39816	1.22002	0.00837306	-0.143413	1.22343	0.0132282
